<svg width="32" height="32" viewBox="0 0 32 32" fill="none" xmlns="http://www.w3.org/2000/svg">
<path d="M5 30V28.3211C5 25.765 6.8365 23.6334 9.24806 23.1983C9.75196 23.1074 10.1242 22.6743 10.1242 22.1576V18.976C10.1242 18.4593 9.75196 18.0267 9.24806 17.9353C6.8365 17.5002 5 15.3686 5 12.8125V2H15.3408C21.103 2 25.9111 6.61637 25.9988 12.4287C26.0883 18.3446 21.3441 23.1861 15.5001 23.1861H11.2385C10.661 23.1861 10.1924 23.6588 10.1924 24.2414V30H5ZM20.8078 16.8927V8.29385C20.8078 7.71125 20.3392 7.23852 19.7617 7.23852H11.2385C10.661 7.23852 10.1924 7.71125 10.1924 8.29385V16.8927C10.1924 17.4753 10.661 17.948 11.2385 17.948H19.7617C20.3397 17.948 20.8078 17.4758 20.8078 16.8927Z" fill="black"/>
</svg>
