<svg width="394" height="74" viewBox="0 0 394 74" fill="none" xmlns="http://www.w3.org/2000/svg">
<path d="M76.3436 16.3825H86.7648V56.7757H76.3436V52.2516C73.8125 56.0214 69.8001 57.9067 64.3068 57.9067C59.8905 57.9067 56.2284 56.4254 53.3202 53.4634C50.4659 50.5012 49.0386 46.4079 49.0386 41.184V16.3825H59.4598V39.8914C59.4598 42.5841 60.1868 44.6578 61.6409 46.1119C63.0951 47.5121 65.0339 48.2123 67.4574 48.2123C70.1501 48.2123 72.3044 47.3773 73.9201 45.708C75.5358 44.0383 76.3436 41.5339 76.3436 38.1949V16.3825Z" fill="black"/>
<path d="M108.346 24.2997C109.315 21.7145 110.904 19.7756 113.112 18.4831C115.374 17.1905 117.879 16.5442 120.625 16.5442V28.1774C117.448 27.8004 114.594 28.4467 112.062 30.1163C109.585 31.7858 108.346 34.5596 108.346 38.4373V57.7452H97.9249V17.3521H108.346V24.2997Z" fill="black"/>
<path d="M135.642 41.8304C137.042 46.8927 140.839 49.4242 147.033 49.4242C151.018 49.4242 154.034 48.0777 156.081 45.3849L164.482 50.2321C160.497 55.9947 154.627 58.8762 146.871 58.8762C140.193 58.8762 134.834 56.8566 130.795 52.8173C126.756 48.778 124.736 43.6884 124.736 37.5487C124.736 31.4627 126.729 26.4001 130.714 22.3608C134.7 18.2676 139.816 16.2211 146.063 16.2211C151.987 16.2211 156.862 18.2676 160.685 22.3608C164.563 26.454 166.502 31.5165 166.502 37.5487C166.502 38.8949 166.367 40.3222 166.098 41.8304H135.642ZM136.603 30.7184C135.807 32.1761 137.064 33.7518 138.725 33.7518H152.879C154.526 33.7518 155.786 32.2005 155.031 30.7363C154.368 29.4498 153.48 28.4084 152.365 27.6119C150.533 26.2654 148.433 25.5922 146.063 25.5922C143.263 25.5922 140.947 26.3193 139.116 27.7735C138.08 28.5655 137.243 29.5472 136.603 30.7184Z" fill="black"/>
<path d="M195.94 10.0813C190.231 9.65044 187.377 11.9394 187.377 16.9481V17.3521H195.94V27.3695H187.377V57.7452H176.956V27.3695H171.139V17.3521H176.956V16.9481C176.956 11.2392 178.544 6.90375 181.722 3.94158C184.9 0.979424 189.639 -0.313153 195.94 0.0638465V10.0813Z" fill="black"/>
<path d="M212.753 24.2997C213.723 21.7145 215.311 19.7756 217.519 18.4831C219.781 17.1905 222.286 16.5442 225.032 16.5442V28.1774C221.855 27.8004 219 28.4467 216.469 30.1163C213.992 31.7858 212.753 34.5596 212.753 38.4373V57.7452H202.332V17.3521H212.753V24.2997Z" fill="black"/>
<path d="M328.101 16.2211C332.735 16.2211 336.422 17.7291 339.168 20.7451C341.97 23.7611 343.369 27.8004 343.369 32.8631V57.7452H332.948V33.5902C332.948 31.1665 332.357 29.2815 331.171 27.935C329.988 26.5886 328.317 25.9154 326.162 25.9154C323.793 25.9154 321.935 26.6963 320.589 28.2582C319.297 29.82 318.65 32.082 318.65 35.0443V57.7452H308.229V33.5902C308.229 31.1665 307.637 29.2815 306.452 27.935C305.267 26.5886 303.597 25.9154 301.443 25.9154C299.128 25.9154 297.269 26.6963 295.869 28.2582C294.523 29.82 293.85 32.082 293.85 35.0443V57.7452H283.429V17.3521H293.85V21.6337C296.273 18.0253 300.016 16.2211 305.079 16.2211C310.033 16.2211 313.695 18.1599 316.065 22.0377C318.758 18.1599 322.769 16.2211 328.101 16.2211Z" fill="black"/>
<path d="M362.641 41.8304C364.043 46.8927 367.84 49.4242 374.031 49.4242C378.019 49.4242 381.034 48.0777 383.079 45.3849L391.481 50.2321C387.496 55.9947 381.625 58.8762 373.87 58.8762C367.194 58.8762 361.833 56.8566 357.794 52.8173C353.755 48.778 351.735 43.6884 351.735 37.5487C351.735 31.4627 353.729 26.4001 357.713 22.3608C361.701 18.2676 366.816 16.2211 373.062 16.2211C378.988 16.2211 383.861 18.2676 387.684 22.3608C391.562 26.454 393.5 31.5165 393.5 37.5487C393.5 38.8949 393.368 40.3222 393.096 41.8304H362.641ZM363.604 30.7165C362.808 32.1747 364.065 33.7518 365.726 33.7518H379.878C381.525 33.7518 382.785 32.2011 382.031 30.7369C381.369 29.4502 380.48 28.4085 379.363 27.6119C377.534 26.2654 375.434 25.5922 373.062 25.5922C370.264 25.5922 367.947 26.3193 366.115 27.7735C365.081 28.5651 364.244 29.5461 363.604 30.7165Z" fill="black"/>
<path fill-rule="evenodd" clip-rule="evenodd" d="M248.774 16.221C254.429 16.221 258.818 18.1867 261.942 22.1183V17.352H272.363V57.745H261.942V52.9786C258.818 56.91 254.429 58.876 248.774 58.876C243.389 58.876 238.757 56.8292 234.879 52.7362C231.055 48.589 229.143 43.5266 229.143 37.5485C229.143 31.5702 231.055 26.5346 234.879 22.4415C238.757 18.2945 243.389 16.221 248.774 16.221ZM242.437 26.821C241.01 26.821 239.852 27.9784 239.852 29.4061V46.2096C239.852 47.6373 241.01 48.7948 242.437 48.7948H259.241C260.668 48.7948 261.826 47.6373 261.826 46.2096V29.4061C261.826 27.9784 260.668 26.821 259.241 26.821H242.437Z" fill="black"/>
<path d="M0 74V70.5704C0 65.3491 3.78671 60.9947 8.75914 60.1059C9.79814 59.9203 10.5657 59.0355 10.5657 57.9801V51.4809C10.5657 50.4255 9.79814 49.5417 8.75914 49.3551C3.78671 48.4663 0 44.1119 0 38.8906V16.8035H21.322C33.2031 16.8035 43.117 26.2335 43.2977 38.1065C43.4823 50.1911 33.7001 60.0809 21.6503 60.0809H12.8632C11.6725 60.0809 10.7064 61.0466 10.7064 62.2367V74H0ZM32.5943 47.2253V29.6601C32.5943 28.47 31.6281 27.5044 30.4374 27.5044H12.8632C11.6725 27.5044 10.7064 28.47 10.7064 29.6601V47.2253C10.7064 48.4154 11.6725 49.381 12.8632 49.381H30.4374C31.6291 49.381 32.5943 48.4164 32.5943 47.2253Z" fill="black"/>
</svg>
